<svg viewBox="31.348000000000003 342.984 859.3040000000001 226.81199999999998" xmlns:xlink="http://www.w3.org/1999/xlink" xmlns="http://www.w3.org/2000/svg" style="max-height: 500px" width="859.3040000000001" height="226.81199999999998"><path d="M524.813 466.695C533.633 465.752 542.902 466.326 550.397 471.474C579.554 491.502 572.363 541.799 536.2 548.849C523.596 551.306 515.247 547.113 505.062 540.155C504.936 545.892 504.987 551.868 504.959 557.625L504.861 579.039C500.667 578.756 487.17 578.747 483.249 579.425C482.347 565.964 483.048 550.554 482.99 536.938C482.892 514.297 482.773 491.332 483.954 468.734C490.76 467.593 497.794 468.289 504.855 467.785C504.697 469.813 504.981 474.591 505.063 476.844C505.269 476.557 505.481 476.275 505.698 475.996C511.048 469.153 516.814 467.619 524.813 466.695ZM529.192 528.246C540.73 526.388 548.545 515.487 546.601 503.963C544.657 492.439 533.697 484.706 522.188 486.737C510.801 488.747 503.168 499.565 505.091 510.967C507.015 522.369 517.776 530.084 529.192 528.246Z" transform="scale(0.900028 0.900028)" fill="#421079"/><path d="M898.285 466.161C909.934 465.438 916.801 467.193 924.844 476.044C931.24 468.842 937.152 466.476 946.693 466.086C954.928 465.66 962.838 466.78 969.022 472.888C976.54 480.313 978.029 489.544 978.084 499.603C978.171 515.622 978.848 531.615 978.955 547.615C971.508 547.486 963.981 547.272 956.545 547.55C956.417 538.41 957.103 494.861 953.378 490.246C951.418 487.817 948.453 486.737 945.422 486.505C941.601 486.212 937.577 486.357 934.632 489.119C932.767 490.869 931.609 493.241 930.995 495.697C928.796 504.493 929.97 526.712 929.978 536.625L930.006 547.954C922.697 547.947 915.387 547.991 908.078 548.087C908.042 534.767 907.605 521.497 907.563 508.167C907.549 503.859 907.767 492.808 904.67 489.628C898.027 482.809 883.883 486.295 882.153 496.224C881.127 502.115 881.27 507.806 881.176 513.803C881.028 525.017 881 536.232 881.091 547.447C873.741 547.722 866.387 547.874 859.033 547.903L859.53 468.487C866.531 468.189 873.904 468.163 880.936 468.033C880.889 470.19 880.971 472.366 881.024 474.524C886.788 469.229 890.59 467.351 898.285 466.161Z" transform="scale(0.900028 0.900028)" fill="#421079"/><path d="M413.703 476.086C425.013 464.397 445.773 461.702 458.073 473.177C469.041 483.409 467.645 496.805 467.81 510.382L468.097 547.962C460.978 547.825 453.509 547.929 446.362 547.917C445.5 536.159 448.54 497.417 442.224 490.052C440.186 487.675 437.429 486.368 434.317 486.16C430.773 485.922 427.003 486.769 424.318 489.188C422.15 491.142 420.711 493.839 420.011 496.652C417.704 505.925 419.145 525.59 418.81 536.124C419.099 539.299 418.977 544.662 419.003 547.997C412.559 547.559 403.818 547.771 397.348 548.011C396.561 536.63 399.509 496.842 393.626 489.931C391.47 487.399 387.993 486.209 384.741 486.108C380.906 485.988 376.997 487.62 374.351 490.394C372.609 492.22 371.654 494.306 371.115 496.752C368.784 507.312 370.017 535.352 370.078 547.47C365.184 547.129 353.021 547.49 348.208 548.138C347.402 522.503 348.082 493.947 347.985 468.008L370.078 467.994L370.033 474.746C376.327 468.683 380.322 467.233 388.815 466.199C400.019 465.528 406.136 467.899 413.703 476.086Z" transform="scale(0.900028 0.900028)" fill="#421079"/><path d="M134.905 454.857C142.231 461.705 149.259 468.87 156.522 475.709C163.313 468.985 170.592 461.5 177.712 455.231L180.537 455.309C187.334 461.992 194.079 469.108 200.754 475.643L200.473 477.202C194.185 484.518 186.119 492.19 179.179 498.976C183.438 503.002 187.628 507.101 191.747 511.271C193.804 513.389 198.492 518.537 200.601 520.194C200.735 522 201.004 521.274 200.277 522.646C193.949 529.412 187.412 535.978 180.675 542.337C179.166 542.795 179.202 542.954 177.723 542.885C170.676 536.172 163.641 529.057 156.61 522.467C149.335 528.849 141.748 536.644 134.868 543.566L133.055 542.843C126.589 535.723 119.96 529.449 113.013 522.837L112.083 520.181C117.421 515.646 128.222 504.19 133.593 498.804C127.241 492.497 118.703 484.476 112.971 477.862C112.21 476.639 112.302 476.683 112.22 475.22C118.993 469.116 125.353 461.458 132.74 455.679L134.905 454.857ZM135.174 499.085C142.716 505.729 149.287 513.202 156.508 520.031C163.434 512.827 170.482 505.74 177.648 498.774C174.236 495.499 159.71 481.06 156.547 479.337C149.688 484.419 141.422 492.98 135.174 499.085Z" transform="scale(0.900028 0.900028)" fill="#058F53"/><path d="M614.931 466.21C627.626 465.111 638.424 466.953 647.675 476.266C659.276 487.943 660.018 500.436 659.98 515.987C643.472 515.261 626.076 516.257 609.507 516.02C606.947 515.983 603.732 515.138 601.679 516.551C601.488 517.668 601.562 517.946 602.055 518.954C604.376 523.651 608.512 527.199 613.508 528.777C620.083 530.808 627.201 530.081 633.231 526.764C642.36 521.853 640.405 522.346 649.711 527.639C652.544 529.416 654.571 530.811 657.254 532.811C649.053 541.759 639.451 548.272 627.024 549.434C615.239 550.536 601.262 547.623 592.103 539.69C565.095 516.301 577.42 469.106 614.931 466.21ZM600.991 498.658C607.883 499.242 616.392 499.027 623.432 499.035C628.41 499.012 633.387 498.905 638.361 498.712C633.334 488.425 627.577 484.71 615.942 485.571C608.005 488.011 603.977 490.391 600.991 498.658Z" transform="scale(0.900028 0.900028)" fill="#421079"/><path d="M177.723 542.885C179.202 542.954 179.166 542.795 180.675 542.337C194.417 557.598 210.834 572.281 224.123 587.566C216.672 595.552 209.109 603.434 201.437 611.209C186.364 596.864 173.14 581.916 157.323 567.781C143.106 578.218 125.855 598.899 111.932 610.984C103.937 603.49 96.1214 595.806 88.4937 587.939L118.642 557.555C122.743 553.39 129.02 546.45 133.055 542.843L134.868 543.566C137.838 545.048 153.049 561.623 156.525 565.252C162.554 559.043 172.626 549.251 177.723 542.885Z" transform="scale(0.900028 0.900028)" fill="#D82931"/><path d="M245.526 431.926C251.344 436.637 264.903 448.625 269.384 454.173C254.47 468.343 238.988 484.443 224.423 499.108L252.979 527.636C257.834 532.49 264.084 539.084 269.109 543.529C263.055 549.213 250.88 560.839 245.668 566.991C235.496 556.688 225.204 546.505 214.794 536.443C210.539 532.316 204.123 526.655 200.277 522.646C201.004 521.274 200.735 522 200.601 520.194C201.55 519.027 206.524 514.554 207.966 513.186L222.696 499C216.155 492.674 206.423 483.557 200.473 477.202L200.754 475.643C202.934 471.908 240.587 436.128 245.526 431.926Z" transform="scale(0.900028 0.900028)" fill="#D82931"/><path d="M44.7207 454.225C50.9329 447.128 60.1167 437.87 67.426 431.858C78.7403 441.538 89.1415 453.445 100.104 463.628C104.097 467.336 108.45 471.354 112.22 475.22C112.302 476.683 112.21 476.639 112.971 477.862C107.431 481.403 95.7534 493.908 90.3803 499.121C95.3754 503.618 100.236 508.685 105.132 513.335C106.28 514.425 111.432 519.312 112.083 520.181L113.013 522.837C108.312 526.388 101.689 532.961 97.4049 537.111C87.3216 546.993 77.3662 557.004 67.5412 567.142L43.8218 543.58C58.2555 528.52 73.6761 514.033 88.1841 498.82C73.463 484.184 58.9735 469.318 44.7207 454.225Z" transform="scale(0.900028 0.900028)" fill="#D82931"/><path d="M201.539 386.818C205.045 389.672 222.775 405.685 223.273 409.176C223.657 411.87 185.155 448.907 180.877 454.826C180.762 454.985 180.65 455.148 180.537 455.309L177.712 455.231C170.987 447.071 162.881 440.45 156.67 432.871C151.017 439.203 141.159 448.528 134.905 454.857L132.74 455.679C128.353 449.567 119.12 440.388 113.673 434.962L88.6382 410.182C93.3447 404.548 106.103 392.618 111.779 387.855C115.391 390.374 122.401 397.294 125.918 400.71C136.268 410.768 146.251 421.087 156.716 431.073C159.825 427.145 167.072 420.378 170.729 416.593C180.679 406.294 190.986 396.493 201.539 386.818Z" transform="scale(0.900028 0.900028)" fill="#D82931"/><path d="M766.963 468.028L788.972 468.033C788.72 481.556 789.011 495.171 788.992 508.696C788.98 517.831 791.747 529.009 803.03 528.908C807.538 528.853 811.843 527.022 815.01 523.812C816.88 521.887 818.595 519.015 818.864 516.353C820.447 500.696 820.067 483.714 820.017 468.035L842.892 468.073C843.378 477.08 843.049 484.862 842.767 493.875L842.475 547.431C836.026 547.216 826.824 547.685 820.166 547.803L819.833 540.053C806.484 552.27 788.665 553.316 775.002 541.039C765.592 532.582 767.066 511.826 767.04 500.099L766.963 468.028Z" transform="scale(0.900028 0.900028)" fill="#421079"/><path d="M717.669 466.258L718.556 466.233C719.332 468.153 718.888 483.775 719.227 487.039C719.064 487.517 719.466 488.876 718.766 488.98C710.301 490.236 697.95 493.304 696.299 503.763C694.142 517.428 694.538 533.274 694.325 547.474C688.304 547.394 679.098 547.345 673.312 547.969L673.054 541.847L673.471 468.578C678.305 468.582 683.061 468.316 687.882 468.028C695.764 467.557 695.132 472.95 695.027 478.568C701.01 470.391 707.659 466.894 717.669 466.258Z" transform="scale(0.900028 0.900028)" fill="#421079"/><path d="M729.004 468.011L752.027 468.012L752 547.901C746.731 547.383 734.835 547.711 729.062 547.765L729.004 468.011Z" transform="scale(0.900028 0.900028)" fill="#421079"/><path d="M331.779 467.939C331.53 467.151 331.026 499.226 331.018 501.264L330.992 547.937C324.654 547.63 315.734 547.942 309.197 547.965C308.678 544.864 309.103 529.737 309.041 525.673C308.754 506.739 309.584 487.034 308.846 468.151C316.291 467.875 324.316 467.964 331.779 467.939Z" transform="scale(0.900028 0.900028)" fill="#421079"/><path d="M875.562 582.204C889.52 581.657 895.707 589.445 895.402 602.995C887.801 602.953 872.527 602.55 865.692 603.591C870.826 614.672 877.527 614.129 887.889 610.354C889.889 609.851 891.227 609.558 892.859 610.499L892.839 611.655C890.652 615.035 885.517 618.08 881.616 618.72C856.606 622.823 847.364 585.864 875.562 582.204ZM865.278 596.617C869.929 596.813 874.393 597.013 879.056 596.986C881.224 596.937 885.839 597.089 887.579 596.269C889.292 591.679 879.859 587.735 875.942 587.569C869.509 589.055 868.296 590.883 865.278 596.617Z" transform="scale(0.900028 0.900028)" fill="#421079"/><path d="M912.043 607.015C914.632 601.304 916.092 595.026 918.486 589.239C919.889 585.844 921.54 581.713 925.775 582.314C929.529 585.969 932.292 603.422 934.699 607.053C937.731 604.806 940.007 587.608 943.623 582.74C945.511 581.694 947.672 581.962 949.923 581.946L947.653 590.116C944.986 598.795 941.411 608.91 938.292 617.434C935.943 617.513 933.739 617.735 931.405 617.952C929.022 609.756 926.787 601.985 924.228 593.802C922.083 599.378 918.206 612.764 914.497 617.686C913.931 618.436 910.88 618.282 909.562 617.989C906.847 614.681 898.994 589.45 897.92 583.67C897.772 582.872 898.134 582.839 898.831 582.17C900.847 582.071 900.883 582.033 902.826 582.455C905.613 584.544 910.621 602.542 912.043 607.015Z" transform="scale(0.900028 0.900028)" fill="#421079"/><path d="M835.836 582.289C852.633 580.617 852.603 591.618 852.601 604.784C852.601 609.213 852.605 613.78 852.594 618.219L846.207 618.032C845.918 612.273 846.264 606.345 846.187 600.573C846.063 591.241 843.757 587.674 834.227 588.454C826.173 591.47 827.456 596.823 827.1 604.314C826.887 608.794 826.94 613.399 826.918 617.89L820.141 618.224C819.772 606.789 820.046 593.763 820.036 582.211C824.102 582.444 825.56 581.632 827.711 585.104C830.783 584.022 832.505 582.874 835.836 582.289Z" transform="scale(0.900028 0.900028)" fill="#421079"/><path d="M320.854 433.174C335.153 431.927 340.172 454.478 322.331 459.11C314.974 458.936 308.708 456.08 307.58 448.289C306.117 438.192 312.402 434.245 320.854 433.174Z" transform="scale(0.900028 0.900028)" fill="#421079"/><path d="M736.738 433.477C741.323 432.194 746.243 433.487 749.604 436.858C752.965 440.23 754.243 445.154 752.944 449.734C751.646 454.315 747.975 457.836 743.345 458.943C736.374 460.61 729.351 456.389 727.551 449.451C725.751 442.513 729.836 435.41 736.738 433.477Z" transform="scale(0.900028 0.900028)" fill="#421079"/><path d="M960.785 582.235C965.836 581.932 977.154 581.837 978.734 587.704C976.603 597.565 964.256 582.321 960.548 588.964C958.37 593.614 963.765 596.001 967.626 596.838C980.823 599.698 985.319 612.621 970.461 618.352C965.342 618.797 950.537 618.271 952.403 610.312C955.911 607.097 962.974 613.555 967.668 612.634C970.436 612.091 973.87 611.161 972.76 607.565C969.902 604.583 963.255 602.712 959.148 600.984C949.555 596.948 951.225 584.736 960.785 582.235Z" transform="scale(0.900028 0.900028)" fill="#421079"/></svg>