<?xml version="1.0" encoding="utf-8" ?><svg xmlns="http://www.w3.org/2000/svg" xmlns:xlink="http://www.w3.org/1999/xlink" width="391" height="387" viewBox="0 0 391 387"><path fill="#00774A" d="M155.979 117.278L156.521 117.233C158.251 119.287 160.575 121.257 162.477 123.212C172.951 133.972 184.024 144.365 194.433 155.175C196.782 152.056 203.358 145.792 206.44 142.711L232.132 117.275L232.649 117.306C234.809 119.785 239.245 123.83 241.778 126.363L261.5 146.129C263.196 147.822 269.389 153.684 270.413 155.359L270.271 155.639C269.168 156.537 267.579 158.339 266.488 159.446L258.753 167.232L232.509 193.366C240.756 201.111 248.962 209.899 257.114 217.845C259.752 220.417 268.446 228.811 270.331 231.294L270.286 231.702C265.128 236.506 258.636 243.453 253.515 248.575L237.213 264.847C235.693 266.357 233.939 267.857 232.499 269.33L232 269.338C231.265 268.217 224.053 261.346 222.559 259.846L194.247 231.494C189.942 236.222 184.908 241.065 180.351 245.619C172.482 253.618 164.507 261.512 156.428 269.3L155.871 269.22C155.275 268.477 152.453 265.818 151.645 265.018L142.049 255.489L126.7 240.1C124 237.39 120.983 234.199 118.193 231.672L118.292 231.132C127.414 221.383 137.198 212.143 146.552 202.609C149.633 199.469 152.84 196.288 156.089 193.326L130.267 167.537C128.43 165.695 119.919 156.876 118.234 155.647L118.261 155.052C119.058 154.362 120.679 152.469 121.549 151.589C124.05 149.057 126.547 146.528 129.061 144.008C137.952 135.016 146.925 126.106 155.979 117.278ZM156.508 193.382C166.011 202.756 175.463 212.182 184.864 221.658C186.041 222.837 193.579 230.633 194.512 231.11C197.199 227.619 206.224 218.839 209.763 215.401C216.925 208.443 224.748 199.971 232.074 193.342L205.817 167.002C204.247 165.432 195.316 156.255 194.037 155.62C190.947 159.398 185.659 164.196 182.136 167.833C173.808 176.429 164.831 184.814 156.508 193.382Z"/><path fill="#E62D39" d="M155.871 269.22L156.428 269.3C158.991 272.172 163.074 275.907 165.928 278.755L184.969 297.81C187.211 300.053 192.539 305.111 194.393 307.374C196.891 304.147 202.231 299.09 205.296 296.028L224.008 277.348C225.487 275.872 231.002 270.601 232 269.338L232.499 269.33C235.892 273.068 241.68 278.481 245.424 282.22L271.818 308.606L295.829 332.625C300.06 336.856 305.396 342.498 309.805 346.36C305.436 350.157 272.608 383.984 271.444 384.248C268.839 382.567 264.65 378.084 262.229 375.666L248.531 361.967L194.254 307.668C188.772 312.947 182.806 319.238 177.341 324.708L138.972 363.068L125.065 376.973C123.637 378.401 118.764 383.769 117.317 384.119C115.181 383.457 83.6975 350.424 79.1831 346.736L78.9101 346.515C80.7314 344.239 84.0828 341.065 86.2284 338.923L98.9205 326.251L139.434 285.706L149.958 275.26C151.291 273.953 154.915 270.575 155.871 269.22Z"/><path fill="#E62D39" d="M347.325 78.0205C355.746 86.3041 364.115 94.6415 372.43 103.032C375.434 106.038 383.122 113.334 385.488 116.218C383.365 118.977 378.774 123.289 376.171 125.892L359.268 142.784C342.739 159.301 325.396 177.289 308.565 193.316C313.428 197.842 318.544 203.151 323.277 207.88L348.591 233.186L372.242 256.836C374.396 258.99 384.742 268.902 385.281 270.539C384.772 271.351 383.9 272.18 383.197 272.849C371.073 284.388 359.581 297.181 347.398 308.597C340.978 302.41 334.521 295.747 328.194 289.421L291.478 252.718L277.323 238.534C275.947 237.154 271.655 232.693 270.286 231.702L270.331 231.294C270.74 230.944 272.45 229.002 272.976 228.454C275.139 226.188 277.336 223.955 279.568 221.757C289.054 212.203 298.598 202.706 308.199 193.266C305.15 190.452 301.682 186.813 298.71 183.848L280.975 166.132C278.944 164.096 272.119 156.96 270.271 155.639L270.413 155.359C272.334 152.476 279.138 146.002 281.942 143.2L303.78 121.39L332.463 92.7008C336.192 88.9686 343.474 81.2613 347.325 78.0205Z"/><path fill="#E62D39" d="M41.1859 77.9715L118.261 155.052L118.234 155.647C117.109 156.399 114.742 159.057 113.623 160.182L102.521 171.31L87.6121 186.194C85.928 187.869 81.7215 191.816 80.4425 193.399C93.2157 205.648 105.579 218.962 118.292 231.132L118.193 231.672C117.743 231.995 113.048 236.848 112.25 237.652L97.2881 252.66L41.3576 308.628C38.7282 306.324 34.9601 302.329 32.3692 299.737L14.249 281.605C10.6555 278.01 6.64273 273.797 2.88234 270.482C4.54353 268.289 9.0945 263.986 11.2678 261.815L27.3724 245.736C44.8118 228.31 62.2848 210.528 79.8928 193.303L30.2375 143.665L13.3403 126.766C10.0597 123.484 6.29842 119.547 2.87615 116.515C4.99806 113.753 12.8219 106.286 15.5335 103.577L41.1859 77.9715Z"/><path fill="#E62D39" d="M117.294 1.9827C123.098 7.4055 129.235 13.8334 134.896 19.4972L174.026 58.6346C180.592 65.2016 187.778 72.7275 194.468 79.0118C196.341 76.5058 201.248 71.8349 203.66 69.4235L220.672 52.4173L252.778 20.3195C258.755 14.3405 265.054 7.81206 271.173 2.02586C274.303 4.58745 278.898 9.47343 281.858 12.4406L300.773 31.3983C303.185 33.8128 307.373 38.2601 309.886 40.2557C305.33 44.0959 297.736 52.1946 293.188 56.7465L260.526 89.4308L240.855 109.062C239.545 110.368 233.372 116.325 232.649 117.306L232.132 117.275C223.9 108.829 215.244 100.526 206.952 92.1071C204.626 89.7446 196.143 80.9163 194.022 79.5108C191.25 82.9922 186.026 87.6703 182.79 91.0506C174.372 99.8457 164.909 108.477 156.521 117.233L155.979 117.278C150.922 111.772 144.217 105.425 138.862 100.078L107.134 68.3534L88.8762 50.0854C86.5782 47.7865 81.2775 42.2646 78.9172 40.5096C80.819 38.1267 83.4381 35.6633 85.6323 33.4712L95.7846 23.3345C102.095 17.0374 110.797 7.76316 117.294 1.9827Z"/></svg>